<?xml version="1.0" encoding="utf-8" ?><svg xmlns="http://www.w3.org/2000/svg" xmlns:xlink="http://www.w3.org/1999/xlink" width="612" height="388" viewBox="0 0 612 388"><path fill="white" transform="scale(0.962264 0.962779)" d="M0 0L636 0L636 403L0 403L0 0Z"/><path fill="#73865F" transform="scale(0.962264 0.962779)" d="M57.0655 169.042C70.2711 169.017 83.4757 169.281 96.681 169.154C106.567 169.059 118.955 168.328 128.56 169.338C131.714 169.67 134.81 170.356 137.553 172.007C140.436 173.742 142.525 176.39 143.316 179.682C144.023 182.623 143.821 185.902 142.983 188.794C137.408 208.032 101.933 208.161 98.0299 215.365C97.6399 216.086 97.5558 216.933 97.7964 217.716C101.1 228.673 140.261 225.985 149.748 253.896C153.494 265.523 151.398 278.524 142.546 287.347C137.805 291.999 131.902 295.294 125.453 296.886C117.44 298.876 102.757 298.273 93.946 298.265L57.089 298.279C56.9105 283.666 57.0692 268.682 57.0681 254.03L57.0655 169.042Z"/><path fill="white" transform="scale(0.962264 0.962779)" d="M76.0083 170.913C86.5066 170.506 105.824 169.907 115.41 173.455C118.674 174.663 121.635 176.646 123.1 179.909C124.478 182.978 124.477 186.664 123.903 189.922C120.262 210.584 89.2831 209.459 84.4252 222.452C83.299 225.465 83.8347 229.016 85.1471 231.882C90.2122 242.942 113.695 245.603 124.565 247.898C129.063 248.848 133.436 249.979 137.757 251.557C143.087 253.685 149.136 257.656 149.364 263.981C150.037 282.651 120.163 280.069 108.01 280.061L75.9934 280.052C75.8585 275.195 75.8966 270.061 75.9579 265.199C76.3531 233.843 75.4041 202.246 76.0083 170.913Z"/><path fill="#73865F" transform="scale(0.962264 0.962779)" d="M317.576 209.09C340.478 208.76 352.966 225.81 354.518 247.175C356.401 273.094 348.698 297.23 319.262 299.491C294.275 299.224 282.814 281.367 281.842 258.075C281.144 241.355 284.524 222.84 300.058 213.507C305.788 210.065 311.079 209.412 317.576 209.09Z"/><path fill="white" transform="scale(0.962264 0.962779)" d="M308.047 212.518C321.131 210.037 331.13 230.346 334.487 240.507C339.316 255.127 342.249 273.969 336.005 288.663C334.5 292.205 331.739 294.669 328.147 295.87C303.461 299.243 284.474 223.538 308.047 212.518Z"/><path fill="#73865F" transform="scale(0.962264 0.962779)" d="M231.825 209.083C254.143 208.533 266.957 225.642 268.597 246.514C270.063 265.169 267.072 286.174 248.771 295.765C243.794 298.374 239.133 299.06 233.611 299.491C208.853 299.417 197.13 281.72 196.109 258.72C194.984 233.36 202.978 210.416 231.825 209.083Z"/><path fill="white" transform="scale(0.962264 0.962779)" d="M224.208 212.175C250.599 213.653 266.166 291.172 240.921 296.098C215.398 296.383 198.646 216.429 224.208 212.175Z"/><path fill="#73865F" transform="scale(0.962264 0.962779)" d="M388.376 209.215C388.92 209.123 388.654 209.095 389.165 209.415C389.492 217.366 389.199 226.835 389.133 234.892C393.472 223.145 400.976 212.373 414.367 209.655C420.575 208.395 429.528 208.968 434.81 212.779C443.145 218.793 441.981 226.588 443.434 235.474C444.317 229.171 448.151 222.862 452.626 218.437C459.266 211.987 465.151 209.274 474.328 209.158C492.575 208.928 497.227 220.214 496.706 236.321C496.557 240.928 496.716 247.244 496.717 252.08L496.667 298.231L478.075 298.284C477.762 281.515 478.277 264.617 478.057 247.837C477.949 239.657 478.524 231.179 477.364 223.086C476.349 216.005 469.521 214.002 463.357 215.583C456.713 217.26 452.082 222.4 448.642 227.965C446.25 232.229 444.612 236.873 443.798 241.693C442.656 248.401 442.909 258.601 442.912 265.635L442.927 298.27L424.086 298.282C423.656 273.707 424.617 248.416 423.711 223.82C423.639 221.881 422.421 219.297 421.03 217.928C414.937 211.931 404.522 216.232 399.569 221.667C387.234 234.381 389.201 251.941 389.219 268.198L389.205 298.235L370.26 298.267L370.279 250.922C370.281 242.81 370.39 234.704 370.129 226.596C369.887 219.063 365.602 219.473 359.552 218.95C362.614 217.693 367.515 216.956 370.945 216.046C377.71 214.251 382.213 212.213 388.376 209.215Z"/><path fill="#73865F" transform="scale(0.962264 0.962779)" d="M545.147 209.089C557.338 209.36 564.376 211.938 574.793 218.063C571.379 224.309 567.949 231.552 564.737 237.973C558.052 229.304 543.694 217.561 532.609 215.877C528.831 215.304 524.115 214.419 520.67 216.804C519 217.96 517.544 220.849 517.364 222.72C515.867 238.305 545.254 243.95 555.895 249.615C562.204 252.656 568.453 256.064 572.632 261.928C579.367 271.375 578.162 286.497 567.992 293.144C557.262 300.156 542.466 300.378 530.342 298.296C520.882 296.355 513.762 292.361 506.935 285.633C510.008 277.811 513.669 270.01 516.778 262.122C525.956 278.474 539.687 293.013 560.008 293.291C565.168 293.361 569.324 289.449 568.716 284.173C567.596 274.463 554.487 270.359 546.904 266.81C532.353 260.155 510.659 254.54 509.467 235.253C508.55 220.413 519.544 212.499 532.747 210.048C536.884 209.28 540.95 209.231 545.147 209.089Z"/><path fill="#73865F" transform="scale(0.962264 0.962779)" d="M181.446 167.668C181.556 167.713 181.827 168.012 181.929 168.114C182.17 182.652 181.951 197.745 181.952 212.342L181.952 298.269L163.068 298.281L163.05 290.141L163.051 221.501C163.05 209.812 163.118 198.009 162.972 186.316C162.956 185.069 162.697 181.988 162.214 180.952C160.638 177.574 155.729 178.303 153.929 177.563L153.89 177.13C154.856 176.556 158.942 175.878 160.339 175.58C168.018 173.941 174.492 171.161 181.446 167.668Z"/><path fill="#73865F" transform="scale(0.962264 0.962779)" d="M313.306 131.082C314.043 130.907 315.165 130.806 315.462 130.235C316.969 127.335 314.738 121.688 316.438 119.408C317.471 119.241 317.01 119.139 317.871 119.701C319.03 122.335 316.676 129.234 319.34 130.778C319.453 130.843 320.608 131.04 320.792 131.07L323.551 132.024L325.586 133.641C327.588 131.88 332.292 126.453 334.063 126.303L334.609 126.623C334.529 129.069 329.166 133.323 327.244 135.451C327.828 136.102 328.472 136.767 328.945 137.494C329.297 138.402 329.643 139.312 329.982 140.225L330.039 140.607C330.184 141.554 330.146 142.065 330.807 142.701C333.582 143.08 340.462 142.052 341.858 143.686C341.06 146.095 332.93 145.19 330.464 145.23L329.887 147.818L328.995 150.39C328.484 151.048 327.823 151.956 327.268 152.543C329.453 154.73 333.764 158.559 334.61 161.375L334.394 161.675C331.806 160.999 327.549 156.275 325.523 154.245C324.809 154.925 324.341 155.38 323.542 155.981L320.766 156.938C319.879 157.049 319.704 157.059 318.875 157.367C316.545 160.401 319.861 167.664 316.925 168.781L316.479 168.494C315.42 166.423 315.879 160.618 315.721 157.748C315.149 157.183 314.121 157.125 313.2 156.915L310.488 155.961L308.338 154.325C306.345 156.311 302.444 160.684 299.941 161.387L299.609 161.102C300.13 158.764 304.825 154.516 306.664 152.668L305.099 150.67L304.125 147.775L303.578 145.309C300.41 145.056 296.978 145.281 293.786 145.1C292.78 145.042 292.693 144.731 292.227 144.083L292.453 143.494C294.226 142.471 300.763 142.782 303.256 142.744C303.787 142.223 303.901 141.133 304.118 140.283L305.059 137.507L306.7 135.365C304.901 133.499 299.701 129.135 299.694 126.773L300.283 126.717C303.039 127.911 306.151 131.456 308.363 133.697C309.011 133.158 309.757 132.608 310.431 132.087C311.353 131.673 312.341 131.39 313.306 131.082Z"/><path fill="#FEADCB" transform="scale(0.962264 0.962779)" d="M328.995 150.39C331.148 152.638 341.957 157.374 345.158 159.912C348.22 162.34 356.509 164.804 356.813 169.82C356.704 174.128 353.217 176.543 348.922 175.46C347.521 177.571 350.33 182.483 343.938 183.696C342.708 183.929 341.607 183.772 340.552 183.083C337.427 181.042 325.38 160.021 323.542 155.981C324.341 155.38 324.809 154.925 325.523 154.245C327.549 156.275 331.806 160.999 334.394 161.675L334.61 161.375C333.764 158.559 329.453 154.73 327.268 152.543C327.823 151.956 328.484 151.048 328.995 150.39Z"/><path fill="#FEADCB" transform="scale(0.962264 0.962779)" d="M305.099 150.67L306.664 152.668C304.825 154.516 300.13 158.764 299.609 161.102L299.941 161.387C302.444 160.684 306.345 156.311 308.338 154.325L310.488 155.961C307.76 161.075 297.434 179.787 293.886 182.781C292.867 183.641 291.888 183.928 290.564 183.796C289.005 183.642 287.363 182.764 286.406 181.537C284.843 179.533 285.293 177.978 285.54 175.658C283.296 174.69 279.458 177.065 277.628 172.273C274.632 164.426 291.59 159.678 296.158 155.577C297.234 154.611 304.162 151.003 305.099 150.67Z"/><path fill="#FEADCB" transform="scale(0.962264 0.962779)" d="M305.059 137.507C298.512 134.926 284.977 125.648 278.647 121.482C275.367 119.324 276.831 111.673 285.413 112.515C286.028 111.288 284.8 109.219 285.515 107.815C287.672 103.582 292.894 102.888 295.689 107.056C298.206 110.811 300.499 114.606 302.678 118.503C305.188 122.99 308.277 127.482 310.431 132.087C309.757 132.608 309.011 133.158 308.363 133.697C306.151 131.456 303.039 127.911 300.283 126.717L299.694 126.773C299.701 129.135 304.901 133.499 306.7 135.365L305.059 137.507Z"/><path fill="#FEADCB" transform="scale(0.962264 0.962779)" d="M313.306 131.082C310.045 122.862 308.452 111.688 305.997 103.003C304.677 98.3317 309.075 94.4832 313.542 96.1571C315.015 96.7089 316.004 99.0834 317.193 99.1225C318.369 97.8741 320.234 95.6348 322.079 95.6683C325.083 95.7184 328.512 97.8445 328.214 101.228C327.957 104.127 327.178 107.113 326.407 109.922C324.492 116.903 322.96 124.175 320.792 131.07C320.608 131.04 319.453 130.843 319.34 130.778C316.676 129.234 319.03 122.335 317.871 119.701C317.01 119.139 317.471 119.241 316.438 119.408C314.738 121.688 316.969 127.335 315.462 130.235C315.165 130.806 314.043 130.907 313.306 131.082Z"/><path fill="#FEADCB" transform="scale(0.962264 0.962779)" d="M323.551 132.024C325.612 127.866 337.927 105.615 341.587 104.484C343.058 104.045 344.647 104.244 345.965 105.032C350.073 107.509 348.033 111.183 349.037 112.289C351.476 112.563 353.973 112.168 355.601 114.437C359.126 119.353 354.537 122.31 350.926 124.706C344.068 129.254 335.722 133.058 328.945 137.494C328.472 136.767 327.828 136.102 327.244 135.451C329.166 133.323 334.529 129.069 334.609 126.623L334.063 126.303C332.292 126.453 327.588 131.88 325.586 133.641L323.551 132.024Z"/><path fill="#FEADCB" transform="scale(0.962264 0.962779)" d="M313.2 156.915C314.121 157.125 315.149 157.183 315.721 157.748C315.879 160.618 315.42 166.423 316.479 168.494L316.925 168.781C319.861 167.664 316.545 160.401 318.875 157.367C319.704 157.059 319.879 157.049 320.766 156.938C321.878 159.66 323.421 166.702 324.297 169.93C325.545 175.091 327.11 180.094 328.077 185.328C328.655 188.456 327.391 190.754 324.425 191.898C319.731 193.71 319.417 189.967 316.982 188.865C315.947 189.902 315.03 190.801 313.734 191.535C309.911 193.711 305.138 190.438 305.865 186.074C307.048 178.978 309.294 172.006 310.979 165.001C311.605 162.398 312.327 159.431 313.2 156.915Z"/><path fill="#FEADCB" transform="scale(0.962264 0.962779)" d="M272.521 144.131C270.164 142.283 267.97 140.423 269 137.016C270.082 133.44 272.39 132.355 275.989 133.01C280.372 133.808 284.636 135.095 288.96 136.16C293.918 137.533 299.305 138.585 304.118 140.283C303.901 141.133 303.787 142.223 303.256 142.744C300.763 142.782 294.226 142.471 292.453 143.494L292.227 144.083C292.693 144.731 292.78 145.042 293.786 145.1C296.978 145.281 300.41 145.056 303.578 145.309L304.125 147.775C299.527 149.274 276.637 155.669 273.095 155.154C271.746 154.958 270.609 153.98 269.855 152.889C268.961 151.597 268.527 150.02 268.89 148.467C269.395 146.302 270.702 145.251 272.521 144.131Z"/><path fill="#FEADCB" transform="scale(0.962264 0.962779)" d="M329.982 140.225C331.092 139.79 335.295 138.558 336.406 138.381C341.044 137.642 358.321 131.655 361.886 133.143C363.315 133.752 364.424 134.93 364.946 136.392C366.06 139.583 363.923 141.868 361.959 144.053C363.846 146.058 364.597 146.522 365.432 149.256C364.63 152.296 363.153 155.962 359.406 155.182C350.314 153.29 339.81 150.738 330.927 148.151C330.578 148.046 330.231 147.935 329.887 147.818L330.464 145.23C332.93 145.19 341.06 146.095 341.858 143.686C340.462 142.052 333.582 143.08 330.807 142.701C330.146 142.065 330.184 141.554 330.039 140.607L329.982 140.225Z"/><path fill="#FEADCB" transform="scale(0.962264 0.962779)" d="M57.9336 324.17C63.4461 323.696 75.024 324.029 80.892 324.029L126.015 324.035L177.606 324.021C185.69 324.016 196.948 323.637 204.64 324.144C205.297 324.722 205.117 324.888 205.247 325.956C174.989 326.393 143.742 325.98 113.407 325.988L78.0291 325.997C72.2045 325.997 64.485 326.236 58.9088 325.864C57.9736 325.254 58.2754 325.61 57.9336 324.17Z"/><path fill="#FEADCB" transform="scale(0.962264 0.962779)" d="M428.72 324.161C434.996 323.783 443.314 324.025 449.763 324.027L488.314 324.038L552.572 324.053C555.598 324.063 574.411 323.452 575.874 324.676L575.952 325.825C573.289 326.17 566.436 325.998 563.419 325.997L539.257 325.988L458.639 325.986C454.873 325.984 430.588 326.606 429.213 325.578C428.803 325.271 428.818 324.649 428.72 324.161Z"/><path fill="#FEADCB" transform="scale(0.962264 0.962779)" d="M215.138 317.225C216.518 317.304 218.071 317.244 219.46 317.236C224.261 317.209 234.1 316.331 229.475 324.279C229.773 326.149 230.317 325.688 231.236 327.639C231.358 328.961 231.023 329.535 230.531 330.741C227.926 333.762 219.168 332.801 215.242 332.839C215.714 329.734 215.675 320.141 215.138 317.225Z"/><path fill="white" transform="scale(0.962264 0.962779)" d="M219.191 325.991C221.504 325.955 225.698 325.469 227.299 327.277C227.701 328.252 227.572 328.414 227.295 329.5C224.622 330.161 221.973 330.067 219.243 330.057L219.191 325.991Z"/><path fill="white" transform="scale(0.962264 0.962779)" d="M219.219 320.014C221.631 319.944 224.551 319.526 226.556 320.703C227.199 321.787 227.004 321.501 226.91 322.95C224.62 323.387 221.764 323.887 219.698 322.853C218.972 321.788 219.233 321.562 219.219 320.014Z"/><path fill="#FEADCB" transform="scale(0.962264 0.962779)" d="M193.206 107.411C198.224 107.578 199.406 111.002 197.346 115.197C200.293 115.95 202.315 116.482 205.366 116.5C200.186 121.469 200.969 119.55 194.505 117.818L191.503 120.394L194.318 123.439C195.119 124.078 195.049 123.843 195.402 124.679C194.776 126.175 194.044 126.694 192.691 127.413C190.481 125.772 186.235 118.786 182.517 116.137L182.261 115.959C185.366 113.227 189.621 109.121 193.206 107.411Z"/><path fill="white" transform="scale(0.962264 0.962779)" d="M193.021 110.753C193.676 110.77 194.036 111.071 194.607 111.41C195.899 113.881 191.459 116.656 189.646 117.996C189.121 117.599 187.749 116.079 187.221 115.518C189.371 113.556 190.653 112.422 193.021 110.753Z"/><path fill="#FEADCB" transform="scale(0.962264 0.962779)" d="M353.55 67.8901C357.084 68.3413 361.84 69.3307 365.152 70.5409C368.366 71.7151 369.243 74.5394 367.374 77.3603C366.409 78.8183 365.003 78.9713 363.398 79.2934C364.443 82.2732 365.331 84.0216 366.982 86.6325C365.39 86.2282 363.739 85.8659 362.135 85.4925L361.767 85.4878C360.767 83.0806 360.384 76.1939 355.712 78.2277C354.898 79.2996 354.852 82.6561 354.871 84.046C353.516 83.7283 351.7 83.384 350.499 82.7693C351.699 80.0316 353.787 70.7377 353.55 67.8901Z"/><path fill="white" transform="scale(0.962264 0.962779)" d="M357.083 71.3053C359.274 71.7637 363.459 72.1445 364.593 74.0547C364.621 75.3349 364.589 74.9883 363.81 76.2252C361.975 76.473 358.056 75.4093 356.121 74.9692L357.083 71.3053Z"/><path fill="#FEADCB" transform="scale(0.962264 0.962779)" d="M252.14 317.217C255.148 317.425 258.806 317.101 261.889 317.305C263.981 317.455 265.812 317.536 267.26 319.236C269.821 322.243 266.714 324.565 264.572 326.47C264.376 328.9 267.926 330.274 268.188 332.508C267.313 333.061 265.945 332.825 264.819 332.774C264.515 332.796 264.058 332.729 263.739 332.698C262.905 330.715 261.113 328.169 259.815 326.457L256.207 326.446C256.21 328.581 256.099 330.72 256.586 332.796L252.346 332.82C252.629 329.627 252.661 320.008 252.14 317.217Z"/><path fill="white" transform="scale(0.962264 0.962779)" d="M256.188 320.036L260.313 319.927C261.746 319.9 262.855 319.859 263.947 320.904C264.368 322.154 264.236 321.817 263.92 323.246C262.04 324.087 258.395 323.83 256.227 323.814L256.188 320.036Z"/><path fill="#FEADCB" transform="scale(0.962264 0.962779)" d="M414.505 88.3931C415.31 88.9817 417.572 90.3502 418.452 91.1305C418.481 91.1563 418.017 93.0107 418.012 92.9927C418.959 96.2354 419.845 100.569 420.549 103.775C422.564 101.057 424.292 98.1217 425.396 94.9194L428.979 97.2617C427.105 99.1553 421.622 108.15 421.222 110.804C420.185 110.187 417.766 108.989 417.389 108.036C418.004 105.298 415.693 98.2021 414.838 95.0336C413.35 97.9269 411.63 100.976 410.091 103.891C408.918 103.63 407.666 102.645 406.629 101.943C408.861 99.4239 413.311 91.6052 414.505 88.3931Z"/><path fill="#FEADCB" transform="scale(0.962264 0.962779)" d="M326.329 317.153C327.305 317.265 329.167 317.23 330.22 317.239C333.053 320.856 336.41 324.057 339.701 327.253C339.428 324.371 339.437 320.185 339.336 317.191C340.32 317.213 342.274 317.173 343.097 317.475C342.619 320.345 342.559 329.782 343.086 332.519L343.151 332.841L339.476 332.79C337.583 329.975 332.533 325.124 329.978 322.556C329.949 325.872 330.094 329.09 330.23 332.399L329.963 332.67C328.821 332.686 327.714 332.778 326.619 332.498C326.561 328.358 327.266 320.886 326.329 317.153Z"/><path fill="#FEADCB" transform="scale(0.962264 0.962779)" d="M219.81 87.823C220.681 88.2261 221.314 89.1152 221.583 90.0088C220.334 92.7504 213.75 93.5079 212.813 96.8604C213.102 97.7046 213.427 97.801 214.215 98.3367C215.584 98.3836 219.178 95.6604 220.564 94.7113C220.949 95.4422 221.319 96.1809 221.674 96.9269C221.243 98.6389 217.956 99.6689 215.623 101.172C216.406 102.381 216.824 103.191 217.463 104.488C219.678 103.243 225.136 100.418 226.575 98.4792C227.122 98.9654 228.338 100.855 228.826 101.568C225.911 102.489 218.37 107.191 215.652 109.051C214.286 105.858 209.938 97.8905 207.506 95.5566C211.047 93.3143 216.87 90.5738 219.81 87.823Z"/><path fill="#FEADCB" transform="scale(0.962264 0.962779)" d="M406.509 317.248L406.627 317.366C406.247 319.574 406.236 321.02 406.183 323.232L414.859 323.227C414.797 321.224 414.708 319.222 414.591 317.222C415.763 317.288 417.507 317.219 418.725 317.207C418.286 321.422 418.456 328.596 418.653 332.835C417.347 332.765 415.847 332.838 414.523 332.871C414.838 330.861 414.791 328.093 414.821 326.004C411.959 325.966 409.054 325.991 406.188 325.991C406.195 328.483 406.257 330.314 406.474 332.796C405.373 332.816 403.526 332.934 402.535 332.658C402.947 329.396 402.846 320.497 402.506 317.152C403.614 317.279 405.348 317.241 406.509 317.248Z"/><path fill="#FEADCB" transform="scale(0.962264 0.962779)" d="M248.652 77.4943L248.909 77.7241C248.833 78.719 248.753 79.3538 248.575 80.3353C247.207 81.9247 242.945 78.7033 239.379 83.6816L239.692 84.3934C241.476 85.0041 257.937 79.6684 251.07 90.985C249.316 93.8768 242.682 94.2243 239.531 94.3436C239.395 93.0471 239.216 91.0557 240.577 90.6559C243.352 91.7527 248.644 91.0549 248.98 87.6086C247.931 86.0626 238.781 89.542 237.391 87.1265C232.506 78.6336 245.736 77.6925 248.652 77.4943Z"/><path fill="#FEADCB" transform="scale(0.962264 0.962779)" d="M389.578 77.5293C390.517 77.6244 393.293 78.8812 394.247 79.3378C394.197 79.4635 394.148 79.5896 394.1 79.7162C393.024 82.7032 394.265 93.262 395.399 96.3036C393.81 95.7704 392.233 95.2 390.671 94.5927C390.016 93.5251 391.008 93.0819 390.813 91.1245C390.216 90.061 390.572 90.4178 389.348 89.8417C378.758 85.5653 387.405 93.3856 377.517 89.6279C380.391 87.5839 388.326 80.6318 389.578 77.5293Z"/><path fill="white" transform="scale(0.962264 0.962779)" d="M389.764 82.8389C390.564 83.6614 391.007 86.4652 390.054 87.4491L389.1 87.289L388.843 87.186C387.676 86.7111 387.523 86.7675 387.145 85.8594C387.394 84.837 388.921 83.6301 389.764 82.8389Z"/><path fill="#FEADCB" transform="scale(0.962264 0.962779)" d="M300.012 65.6695L300.265 65.8603C300.976 68.7135 307.087 78.2897 309.015 80.3866C307.041 80.6392 304.622 81.4136 303.241 79.8428C303.104 76.3322 300.276 77.2727 297.553 77.5671C293.914 77.8436 295.573 79.625 294.949 81.6036C294.265 81.9671 291.208 82.1161 290.104 82.2609C291.761 79.7273 295.962 69.1432 295.5 66.3118C296.231 65.9666 299.047 65.7688 300.012 65.6695Z"/><path fill="white" transform="scale(0.962264 0.962779)" d="M298.284 70.6299C298.97 70.9769 300.532 73.9329 300.555 74.8135L300.005 75.0869C299.677 75.1261 299.348 75.1611 299.019 75.1919C297.816 75.2946 297.757 75.333 297.033 74.7067C296.848 73.6363 297.818 71.7475 298.284 70.6299Z"/><path fill="#FEADCB" transform="scale(0.962264 0.962779)" d="M321.257 64.958L325.489 65.1842C324.59 69.4415 322.708 79.5995 329.691 78.3209C336.041 77.1581 331.663 69.0267 333.998 66.0058C334.82 65.5415 336.662 65.5195 337.288 66.2555L336.992 67.1242C336.197 72.6745 338.218 80.6704 330.922 81.0852C317.055 81.8738 322.187 73.6705 321.3 65.34L321.257 64.958Z"/><path fill="#FEADCB" transform="scale(0.962264 0.962779)" d="M293.046 317.255C292.727 319.803 292.293 325.82 293.197 328.322C293.554 329.326 294.698 329.715 295.639 330.036C304.019 332.899 300.224 320.8 301.149 317.494C302.216 317.234 303.88 316.963 304.861 317.583L304.554 319.534C304.413 324.177 306.03 331.754 300.219 332.611C285.001 334.853 290.639 325.996 288.872 317.567L288.8 317.236L293.046 317.255Z"/><path fill="#FEADCB" transform="scale(0.962264 0.962779)" d="M372.276 317.103C375.846 316.94 378.423 318.314 381.799 319.422C381.002 320.496 380.331 321.697 379.648 322.85C377.976 320.956 375.584 319.498 372.962 319.755C371.402 319.904 369.979 320.709 369.049 321.969C368.128 323.219 367.791 324.805 368.125 326.322C369.09 330.63 373.296 330.632 376.651 329.586C377.877 328.998 378.559 328.279 379.56 327.368L381.784 330.534C376.921 332.199 371.776 334.633 366.903 331.039C365.36 329.922 364.352 328.213 364.118 326.323C363.84 324.207 364.409 322.066 365.701 320.367C367.578 317.947 369.415 317.445 372.276 317.103Z"/><path fill="#FEADCB" transform="scale(0.962264 0.962779)" d="M442.359 106.71C444.473 109.58 450.619 115.785 453.636 117.579L450.898 120.303C449.796 118.309 448.77 117.305 447.127 115.762C445.149 117.645 443.683 119.144 441.856 121.175C440.367 122.779 439.667 123.533 438.44 125.398C437.704 124.622 435.678 122.753 435.534 121.935C437.069 121.104 442.874 114.784 444.415 113.208C442.703 111.412 441.802 110.569 439.554 109.536C440.517 108.666 441.455 107.652 442.359 106.71Z"/><path fill="#FEADCB" transform="scale(0.962264 0.962779)" d="M277.57 68.0636C278.07 68.7159 278.177 70.4919 278.318 71.4535C276.583 71.5424 274.185 71.9439 272.415 72.1875C273.22 75.6586 274.258 81.7706 275.593 84.8314C274.24 85.0414 272.628 85.4162 271.264 85.6975C271.163 83.8062 270.726 81.734 270.385 79.8534L268.955 73.0345C266.747 73.5057 265.167 73.8962 263.137 74.919C263.028 73.8963 262.675 72.3279 262.465 71.2668C266.48 71.0426 273.727 69.3685 277.57 68.0636Z"/></svg>